HIERARCHY
ROOT Hips
{
	OFFSET -0.001795 -0.223333 0.028219
	CHANNELS 6 Xposition Yposition Zposition Zrotation Yrotation Xrotation 
	JOINT LeftUpLeg
	{
		OFFSET 0.069520 -0.091406 -0.006815
		CHANNELS 3 Zrotation Yrotation Xrotation
		JOINT LeftLeg
		{
			OFFSET 0.034277 -0.375199 -0.004496
			CHANNELS 3 Zrotation Yrotation Xrotation
			JOINT LeftFoot
			{
				OFFSET -0.013596 -0.397961 -0.043693
				CHANNELS 3 Zrotation Yrotation Xrotation
				JOINT LeftToe
				{
					OFFSET 0.026358 -0.055791 0.119288
					CHANNELS 3 Zrotation Yrotation Xrotation
					End Site
					{
						OFFSET 0.000000 0.000000 0.000000
					}
				}
			}
		}
	}
	JOINT RightUpLeg
	{
		OFFSET -0.067670 -0.090522 -0.004320
		CHANNELS 3 Zrotation Yrotation Xrotation
		JOINT RightLeg
		{
			OFFSET -0.038290 -0.382569 -0.008850
			CHANNELS 3 Zrotation Yrotation Xrotation
			JOINT RightFoot
			{
				OFFSET 0.015774 -0.398415 -0.042312
				CHANNELS 3 Zrotation Yrotation Xrotation
				JOINT RightToe
				{
					OFFSET -0.025372 -0.048144 0.123348
					CHANNELS 3 Zrotation Yrotation Xrotation
					End Site
					{
						OFFSET 0.000000 0.000000 0.000000
					}
				}
			}
		}
	}
	JOINT Spine
	{
		OFFSET -0.002533 0.108963 -0.026696
		CHANNELS 3 Zrotation Yrotation Xrotation
		JOINT Spine1
		{
			OFFSET 0.005487 0.135180 0.001092
			CHANNELS 3 Zrotation Yrotation Xrotation
			JOINT Spine2
			{
				OFFSET 0.001457 0.052922 0.025425
				CHANNELS 3 Zrotation Yrotation Xrotation
				JOINT Neck
				{
					OFFSET -0.002778 0.213870 -0.042857
					CHANNELS 3 Zrotation Yrotation Xrotation
					JOINT Head
					{
						OFFSET 0.005152 0.064970 0.051349
						CHANNELS 3 Zrotation Yrotation Xrotation
						End Site
						{
							OFFSET 0.000000 0.000000 0.000000
						}
					}
				}
				JOINT LeftShoulder
				{
					OFFSET 0.078845 0.121749 -0.034090
					CHANNELS 3 Zrotation Yrotation Xrotation
					JOINT LeftArm
					{
						OFFSET 0.090977 0.030469 -0.008868
						CHANNELS 3 Zrotation Yrotation Xrotation
						JOINT LeftForeArm
						{
							OFFSET 0.259612 -0.012772 -0.027456
							CHANNELS 3 Zrotation Yrotation Xrotation
							JOINT LeftHand
							{
								OFFSET 0.249234 0.008986 -0.001171
								CHANNELS 3 Zrotation Yrotation Xrotation
								End Site
								{
									OFFSET 0.000000 0.000000 0.000000
								}
							}
						}
					}
				}
				JOINT RightShoulder
				{
					OFFSET -0.081759 0.118833 -0.038615
					CHANNELS 3 Zrotation Yrotation Xrotation
					JOINT RightArm
					{
						OFFSET -0.096012 0.032551 -0.009143
						CHANNELS 3 Zrotation Yrotation Xrotation
						JOINT RightForeArm
						{
							OFFSET -0.253742 -0.013329 -0.021401
							CHANNELS 3 Zrotation Yrotation Xrotation
							JOINT RightHand
							{
								OFFSET -0.255298 0.007772 -0.005559
								CHANNELS 3 Zrotation Yrotation Xrotation
								End Site
								{
									OFFSET 0.000000 0.000000 0.000000
								}
							}
						}
					}
				}
			}
		}
	}
}
MOTION
Frames: 17
Frame Time: 0.050000
-0.000493 0.951238 -0.014153 -5.007209 -8.615922 5.611314 12.598083 0.471033 -14.713685 -4.465870 0.660545 5.706327 -3.409081 -1.563718 13.445958 0.000000 0.000000 0.000000 -4.993447 0.821698 -9.259117 2.060272 0.043798 7.213083 -8.254781 -21.338035 23.398207 0.000000 0.000000 0.000000 -14.858185 3.640346 27.309426 2.339564 -0.476159 -16.260430 -2.474255 8.028499 21.851076 -7.747913 7.058650 -10.102056 0.000000 0.000000 0.000000 -27.291449 -23.760969 11.938675 -32.628384 -45.370217 6.577252 7.582079 -37.793664 -0.966525 0.000000 0.000000 0.000000 -0.586214 24.363345 8.579781 36.230003 24.751915 2.322770 104.637651 74.957487 96.179714 0.000000 0.000000 0.000000 
-0.000407 0.951456 -0.014204 -4.945523 -8.518903 5.545183 12.480407 0.442270 -14.535247 -4.392016 0.640334 5.445477 -3.470680 -1.622631 13.531571 0.000000 0.000000 0.000000 -5.110266 0.816232 -9.243806 2.097819 0.035085 7.159508 -8.323491 -21.428792 23.858007 0.000000 0.000000 0.000000 -14.983579 3.667674 27.317012 2.418588 -0.495515 -16.301227 -2.594709 8.238810 21.977520 -7.620496 7.003140 -9.848505 0.000000 0.000000 0.000000 -27.296762 -23.638966 11.757305 -33.485202 -45.521955 6.908999 7.472785 -37.287436 -0.919726 0.000000 0.000000 0.000000 -1.363131 24.366231 8.405686 36.034133 24.939953 2.387803 103.836959 76.005440 96.541644 0.000000 0.000000 0.000000 
-0.000360 0.951466 -0.014359 -4.812216 -8.144423 5.547751 12.423647 0.422072 -14.757336 -4.554125 0.666070 5.586533 -3.659075 -1.847098 13.624431 0.000000 0.000000 0.000000 -5.259932 0.800126 -9.112640 2.085527 0.027153 7.005308 -8.392724 -21.472471 23.951354 0.000000 0.000000 0.000000 -15.127287 3.678053 27.328813 2.298587 -0.448906 -16.327407 -2.672738 8.111955 22.093139 -7.875917 7.202020 -9.694033 0.000000 0.000000 0.000000 -27.380457 -23.725085 11.797998 -33.709783 -45.798187 7.070314 7.317325 -36.567697 -0.852415 0.000000 0.000000 0.000000 -2.058455 24.648497 8.337069 36.069382 25.202156 2.499938 102.269553 77.178624 96.139896 0.000000 0.000000 0.000000 
-0.000329 0.951427 -0.014566 -4.723079 -7.932572 5.484945 12.275170 0.397507 -14.933846 -4.470958 0.652980 5.861764 -3.757614 -1.980726 13.620403 0.000000 0.000000 0.000000 -5.356082 0.779463 -8.872937 2.166638 0.009125 6.899592 -8.445478 -21.501767 23.569645 0.000000 0.000000 0.000000 -15.177157 3.711155 27.622673 2.193504 -0.396970 -16.663156 -2.627500 8.248514 22.326033 -7.868643 7.234998 -9.570783 0.000000 0.000000 0.000000 -27.296247 -23.921583 11.826802 -33.865277 -46.045846 7.196252 7.023641 -36.523125 -0.765266 0.000000 0.000000 0.000000 -2.419328 25.108737 8.405304 36.126991 25.389594 2.586541 100.814962 78.172663 95.752081 0.000000 0.000000 0.000000 
-0.000248 0.951338 -0.014798 -4.687233 -7.449780 5.577560 12.269054 0.373868 -15.122664 -4.542318 0.654879 5.749469 -3.982286 -2.260318 13.692232 0.000000 0.000000 0.000000 -5.295299 0.771030 -8.788971 2.217271 -0.007872 6.770543 -8.883856 -22.024721 23.504973 0.000000 0.000000 0.000000 -15.170711 3.685702 27.772496 2.204726 -0.385624 -16.745900 -2.564946 8.248019 22.394773 -8.000665 7.342746 -9.743512 0.000000 0.000000 0.000000 -26.883203 -23.949048 11.688583 -34.394121 -46.587928 7.546571 6.921458 -36.352363 -0.735594 0.000000 0.000000 0.000000 -2.807509 25.398833 8.417320 36.436122 25.616341 2.731894 98.686011 79.214082 94.754832 0.000000 0.000000 0.000000 
-0.000175 0.951371 -0.014966 -4.649522 -7.095968 5.648619 12.258420 0.354598 -15.235126 -4.608661 0.657817 5.612524 -4.154480 -2.460281 13.788433 0.000000 0.000000 0.000000 -5.332128 0.769806 -8.830463 2.301145 -0.025027 6.740530 -9.176565 -22.372564 23.749976 0.000000 0.000000 0.000000 -15.135726 3.639413 27.743408 2.283536 -0.405926 -16.622907 -2.633026 8.442618 22.402985 -8.030549 7.401178 -9.772789 0.000000 0.000000 0.000000 -26.471884 -24.195034 11.646910 -34.818520 -46.939744 7.812230 6.991405 -36.305495 -0.771984 0.000000 0.000000 0.000000 -2.769088 25.661243 8.527336 36.668495 25.849342 2.868131 96.059488 79.548782 92.536543 0.000000 0.000000 0.000000 
-0.000181 0.951202 -0.014974 -4.627610 -6.999817 5.766745 12.348802 0.363003 -15.348594 -4.803798 0.689020 5.533030 -4.193907 -2.502290 13.817058 0.000000 0.000000 0.000000 -5.250621 0.784202 -9.022835 2.401621 -0.036030 6.894425 -9.655218 -22.998656 23.650149 0.000000 0.000000 0.000000 -15.126787 3.640826 27.799987 2.238680 -0.380284 -16.813726 -2.382582 8.592466 22.666271 -8.087566 7.460953 -9.919710 0.000000 0.000000 0.000000 -25.878963 -24.292485 11.573185 -34.851357 -47.351282 7.919982 7.430738 -36.430230 -0.922017 0.000000 0.000000 0.000000 -2.707984 25.777377 8.585811 37.120539 26.211722 3.047217 94.358151 79.676192 91.037246 0.000000 0.000000 0.000000 
-0.000325 0.951158 -0.014825 -4.586630 -6.744551 5.821935 12.313323 0.347540 -15.502237 -4.811177 0.686778 5.585038 -4.308880 -2.648046 13.841600 0.000000 0.000000 0.000000 -5.224676 0.781547 -9.007299 2.446899 -0.046981 6.853031 -9.971526 -23.386368 23.692990 0.000000 0.000000 0.000000 -15.191049 3.624668 27.703478 2.296081 -0.406019 -16.490361 -2.264848 8.554359 22.551750 -8.297174 7.604794 -10.225294 0.000000 0.000000 0.000000 -25.689059 -24.384287 11.565128 -34.584946 -47.480953 7.878026 7.612796 -36.558235 -0.994547 0.000000 0.000000 0.000000 -2.549652 25.932014 8.686047 37.487824 26.408301 3.180512 92.533528 79.163409 88.671150 0.000000 0.000000 0.000000 
-0.000532 0.951032 -0.014579 -4.511649 -6.799686 5.769280 12.317907 0.349630 -15.446647 -4.940564 0.711456 5.623942 -4.284903 -2.622340 13.821038 0.000000 0.000000 0.000000 -5.273352 0.788389 -9.137027 2.589464 -0.061985 7.048782 -10.369102 -23.910938 23.879341 0.000000 0.000000 0.000000 -15.337552 3.686289 27.804134 2.397429 -0.439407 -16.448663 -2.143694 8.630980 22.530395 -8.243028 7.581057 -9.995044 0.000000 0.000000 0.000000 -25.743810 -24.689587 11.748908 -33.720600 -47.350153 7.539389 7.562802 -36.573480 -0.990445 0.000000 0.000000 0.000000 -2.132690 26.270203 8.910509 37.841579 26.611589 3.291826 91.231688 78.920181 87.113524 0.000000 0.000000 0.000000 
-0.000780 0.951183 -0.014364 -4.440912 -6.980814 5.708614 12.301430 0.357466 -15.421029 -5.016768 0.732000 5.786192 -4.214961 -2.517771 13.849362 0.000000 0.000000 0.000000 -5.366956 0.795321 -9.264283 2.583282 -0.057112 7.112979 -10.434760 -24.002799 24.377267 0.000000 0.000000 0.000000 -15.487689 3.755327 27.858292 2.507857 -0.479324 -16.387113 -2.173880 8.606615 22.554154 -8.412778 7.687705 -10.464068 0.000000 0.000000 0.000000 -25.732677 -24.721886 11.808975 -32.859362 -47.425882 7.251280 7.420511 -36.374069 -0.941962 0.000000 0.000000 0.000000 -2.014571 26.356020 8.964559 37.775490 26.701222 3.296583 92.200311 78.761039 87.881937 0.000000 0.000000 0.000000 
-0.001042 0.951476 -0.014193 -4.445498 -7.154471 5.641312 12.292648 0.358880 -15.200951 -4.964347 0.722380 5.635647 -4.152936 -2.418309 13.902682 0.000000 0.000000 0.000000 -5.375143 0.798622 -9.302303 2.514788 -0.048170 7.000344 -10.430763 -23.997547 25.051168 0.000000 0.000000 0.000000 -15.470833 3.765401 27.859901 2.466869 -0.479295 -16.224509 -2.235773 8.449290 22.474620 -8.452401 7.690921 -10.545422 0.000000 0.000000 0.000000 -25.785762 -24.786080 11.943079 -32.254261 -47.366061 7.021358 7.050679 -36.077179 -0.812707 0.000000 0.000000 0.000000 -1.971366 26.225938 8.921442 37.498237 26.613128 3.208212 92.845604 78.257075 87.898847 0.000000 0.000000 0.000000 
-0.001256 0.951722 -0.014087 -4.358752 -7.318491 5.767027 12.334241 0.368509 -15.152540 -5.168862 0.755569 5.376619 -4.097417 -2.291147 14.060336 0.000000 0.000000 0.000000 -5.433478 0.819347 -9.598987 2.435112 -0.029807 7.143848 -10.407632 -23.986863 25.236208 0.000000 0.000000 0.000000 -15.437284 3.774640 27.821327 2.493655 -0.488719 -16.240074 -2.415499 8.089159 22.475806 -8.520945 7.690413 -10.799062 0.000000 0.000000 0.000000 -25.833050 -24.667204 12.042050 -31.945234 -47.407547 6.897610 6.704498 -35.798984 -0.676595 0.000000 0.000000 0.000000 -1.951775 25.743711 8.751923 37.407180 26.594786 3.136917 93.741444 77.624878 88.022121 0.000000 0.000000 0.000000 
-0.001531 0.951970 -0.013937 -4.378446 -7.382627 5.793609 12.317934 0.372307 -15.220071 -5.072274 0.742662 5.501105 -4.073264 -2.247905 14.094551 0.000000 0.000000 0.000000 -5.461648 0.836323 -9.860531 2.342151 -0.013156 7.203314 -10.378291 -23.934982 26.190108 0.000000 0.000000 0.000000 -15.295939 3.742092 27.839916 2.496633 -0.478390 -16.506604 -2.566950 7.791728 22.684583 -8.439101 7.605907 -10.998261 0.000000 0.000000 0.000000 -26.043746 -24.713215 12.239030 -31.682759 -47.366989 6.763463 6.387467 -35.408922 -0.556870 0.000000 0.000000 0.000000 -1.736039 25.122973 8.575663 36.736173 26.272754 2.877951 94.983571 77.262732 88.750807 0.000000 0.000000 0.000000 
-0.001752 0.952085 -0.013739 -4.414432 -7.453168 5.858646 12.425935 0.399101 -15.423542 -5.164223 0.767881 5.800253 -4.043339 -2.201515 14.109038 0.000000 0.000000 0.000000 -5.607789 0.846524 -10.060580 2.368966 -0.017803 7.156167 -10.105477 -23.586758 26.981157 0.000000 0.000000 0.000000 -15.254799 3.737223 27.827477 2.509071 -0.474822 -16.685227 -2.816220 7.286914 22.695916 -8.612126 7.688404 -10.555752 0.000000 0.000000 0.000000 -26.293764 -24.497844 12.342262 -31.573600 -47.416596 6.712768 5.935390 -34.802373 -0.386956 0.000000 0.000000 0.000000 -1.751564 24.006434 8.176118 36.601888 25.837446 2.666620 95.574354 76.840254 88.731261 0.000000 0.000000 0.000000 
-0.002097 0.952216 -0.013493 -4.490186 -7.591211 5.900024 12.544276 0.429545 -15.556601 -5.185653 0.781530 6.073401 -3.980767 -2.120142 14.098994 0.000000 0.000000 0.000000 -5.764459 0.849556 -10.141716 2.454292 -0.031909 7.058610 -9.595993 -22.967410 27.454832 0.000000 0.000000 0.000000 -15.109105 3.700773 27.781897 2.584710 -0.496480 -16.777264 -3.134303 6.960843 22.571802 -8.467037 7.569922 -9.976724 0.000000 0.000000 0.000000 -26.797409 -24.476193 12.554930 -30.981441 -47.421688 6.501579 5.313913 -34.481883 -0.184595 0.000000 0.000000 0.000000 -1.372703 23.042928 7.922621 35.865366 25.179880 2.319091 95.634975 76.553306 88.285403 0.000000 0.000000 0.000000 
-0.002465 0.952334 -0.013331 -4.565834 -7.838214 5.658244 12.612940 0.451331 -15.331859 -5.125555 0.781516 6.303582 -3.882341 -2.014779 14.024108 0.000000 0.000000 0.000000 -5.802435 0.836777 -9.947772 2.395061 -0.022867 6.983267 -9.101516 -22.385622 27.836240 0.000000 0.000000 0.000000 -15.191555 3.766846 27.990602 2.619088 -0.500010 -17.030711 -3.301482 6.803021 22.678126 -8.583311 7.666678 -9.333529 0.000000 0.000000 0.000000 -27.155953 -24.359427 12.650362 -30.476242 -47.816749 6.410354 4.492410 -33.739061 0.069335 0.000000 0.000000 0.000000 -1.300341 22.038905 7.577029 35.327635 24.287490 1.957058 95.928347 76.263220 88.113123 0.000000 0.000000 0.000000 
-0.002901 0.952479 -0.013439 -4.670605 -7.829785 5.639934 12.774127 0.481374 -15.458516 -5.155948 0.794500 6.580809 -3.900072 -2.031579 14.043974 0.000000 0.000000 0.000000 -5.854603 0.829652 -9.856408 2.364329 -0.024190 6.804734 -8.501622 -21.648420 28.151551 0.000000 0.000000 0.000000 -15.313344 3.803122 28.010878 2.717443 -0.525847 -17.092703 -3.596093 6.441990 22.683922 -8.835893 7.843942 -8.948561 0.000000 0.000000 0.000000 -27.371794 -24.230428 12.736977 -29.943807 -48.427940 6.364198 4.058238 -32.961785 0.200965 0.000000 0.000000 0.000000 -1.403960 21.238431 7.275249 34.827458 23.130820 1.550005 96.311088 75.867165 87.888937 0.000000 0.000000 0.000000 
